<svg xmlns="http://www.w3.org/2000/svg" shape-rendering="geometricPrecision" text-rendering="geometricPrecision" image-rendering="optimizeQuality" fill-rule="evenodd" clip-rule="evenodd" viewBox="0 0 432 511.928"><path fill="#3BA9FD" d="M400.855 431.875c-98.168 37.694-248.832 36.881-368.837.612L217.954 29.492l182.901 402.383z"/><path fill="#359DF3" d="M400.855 431.875c-22.348 8.582-47.423 15.161-74.232 19.787L176.637 119.041l41.317-89.549 182.901 402.383z"/><path fill="#F7502F" d="M102.246 280.276l37.074-80.355c45.148-17.245 86.47-36.11 129.961-57.508l2.422 5.327 21.751 49.762c-57.488 36.96-122.141 63.178-191.208 82.774zm228.405-2.849l5.115 11.251c-95.961 66.321-194.963 104.475-293.103 121.397l35.604-77.625c77.002-18.993 154.302-47.721 232.262-98.265l20.122 43.242zm21.894 48.167l2.164 4.758 22.103 49.082c-24.709 18.588-47.818 34.101-69.508 46.885-23.741 13.993-45.785 26.185-66.368 34.106-59.207 1.562-113.317-3.941-160.162-15.691 89.65-18.871 181.169-57.477 271.771-119.14z"/><path fill="#F2433B" fill-rule="nonzero" d="M18.648 481.857c-14.117-4.531-21.887-19.65-17.356-33.767 4.531-14.117 19.65-21.887 33.767-17.356 56.187 18.062 120.496 27.57 184.623 27.546 61.762-.024 123.139-8.894 176.627-27.485 14.001-4.88 29.308 2.514 34.188 16.515 4.88 14.001-2.514 29.308-16.515 34.188-59.22 20.584-126.711 30.403-194.3 30.43-69.675.027-139.7-10.353-201.034-30.071z"/><path fill="#FFCF4C" fill-rule="nonzero" d="M219.141 2.094l16.713 39.13 42.388 3.803a3.396 3.396 0 013.093 3.68 3.37 3.37 0 01-1.148 2.262l.003.003-32.068 28.001 9.485 41.504a3.406 3.406 0 01-5.183 3.608L216 102.309l-36.538 21.845a3.404 3.404 0 01-4.668-1.175 3.388 3.388 0 01-.395-2.502h-.003l9.485-41.504-32.068-28.001a3.403 3.403 0 01-.321-4.8 3.386 3.386 0 012.377-1.154l42.277-3.794 16.721-39.15a3.404 3.404 0 016.274.02z"/><path fill="#FFC522" fill-rule="nonzero" d="M248.122 78.973l9.485 41.504a3.406 3.406 0 01-5.183 3.608L216 102.309l-36.538 21.845a3.404 3.404 0 01-4.668-1.175 3.388 3.388 0 01-.395-2.502h-.003l9.485-41.504-32.068-28.001a3.403 3.403 0 01-.321-4.8 3.386 3.386 0 012.377-1.154l94.253 33.955z"/></svg>